<?xml version="1.0" encoding="utf-8"?>
<!-- Generator: Adobe Illustrator 21.0.0, SVG Export Plug-In . SVG Version: 6.00 Build 0)  -->
<svg version="1.1" id="Слой_1" xmlns="http://www.w3.org/2000/svg" xmlns:xlink="http://www.w3.org/1999/xlink" x="0px" y="0px"
	 viewBox="0 0 172.5 164.7" style="enable-background:new 0 0 172.5 164.7;" xml:space="preserve">
<style type="text/css">
	.st0{display:none;fill:#F3D73E;}
	.st1{clip-path:url(#SVGID_2_);fill:#431C22;}
</style>
<rect x="-27" y="-117.6" class="st0" width="226.8" height="330.1"/>
<g>
	<defs>
		<rect id="SVGID_1_" x="-27" y="-117.6" width="226.8" height="330.1"/>
	</defs>
	<clipPath id="SVGID_2_">
		<use xlink:href="#SVGID_1_"  style="overflow:visible;"/>
	</clipPath>
	<path class="st1" d="M1.4,84.4l1.3-0.2c0,0.5,0.1,0.8,0.3,1c0.2,0.2,0.4,0.3,0.7,0.3c0.3,0,0.5-0.1,0.6-0.2
		c0.2-0.2,0.2-0.4,0.2-0.6c0-0.5-0.4-1.1-1.1-1.8c-0.1-0.1-0.1-0.1-0.1-0.1C2.5,82,2,81.4,1.8,81c-0.2-0.4-0.3-0.8-0.3-1.3
		c0-0.6,0.2-1.2,0.6-1.6c0.4-0.4,0.9-0.7,1.6-0.7c0.6,0,1.1,0.2,1.5,0.6c0.4,0.4,0.6,1,0.7,1.7l-1.4,0.2c0-0.4-0.1-0.7-0.2-0.9
		c-0.1-0.2-0.3-0.3-0.6-0.3c-0.2,0-0.4,0.1-0.5,0.2c-0.1,0.2-0.2,0.4-0.2,0.6c0,0.5,0.4,1.2,1.3,2.1c0,0,0.1,0.1,0.1,0.1
		c0.6,0.6,1.1,1.1,1.3,1.6c0.2,0.4,0.3,0.9,0.3,1.3c0,0.7-0.2,1.2-0.6,1.6C4.9,86.7,4.3,87,3.7,87C3,87,2.5,86.7,2,86.3
		C1.6,85.8,1.4,85.2,1.4,84.4"/>
	<rect x="6.9" y="77.6" class="st1" width="1.4" height="9.1"/>
	<path class="st1" d="M9.7,86.7v-9.1H11l1.8,5.5c0,0.1,0.1,0.2,0.1,0.4c0,0.2,0.1,0.4,0.1,0.6c0-0.3-0.1-0.5-0.1-0.7
		c0-0.2,0-0.4,0-0.5v-5.2h1.3v9.1h-1.3l-1.7-5.1c0,0,0-0.1,0-0.1c-0.1-0.3-0.2-0.6-0.3-0.9c0.1,0.3,0.1,0.6,0.1,0.8
		c0,0.2,0,0.4,0,0.5v4.8H9.7z"/>
	<path class="st1" d="M15.5,84.4v-4.7c0-0.7,0.2-1.3,0.6-1.7c0.4-0.4,0.9-0.6,1.6-0.6c0.7,0,1.2,0.2,1.6,0.6c0.4,0.4,0.6,1,0.6,1.7
		v0.9h-1.4v-1c0-0.3-0.1-0.6-0.2-0.7c-0.1-0.2-0.3-0.2-0.5-0.2c-0.2,0-0.4,0.1-0.5,0.2c-0.1,0.2-0.2,0.4-0.2,0.7v5.1
		c0,0.3,0.1,0.6,0.2,0.7c0.1,0.2,0.3,0.2,0.5,0.2c0.2,0,0.4-0.1,0.5-0.2c0.1-0.2,0.2-0.4,0.2-0.7v-1.2h1.4v1c0,0.8-0.2,1.4-0.6,1.9
		c-0.4,0.4-0.9,0.7-1.6,0.7c-0.7,0-1.3-0.2-1.6-0.6C15.7,85.9,15.5,85.2,15.5,84.4"/>
	<polygon class="st1" points="21.1,86.7 21.1,77.6 24.7,77.6 24.7,78.9 22.5,78.9 22.5,81.3 24.1,81.3 24.1,82.6 22.5,82.6 
		22.5,85.4 24.7,85.4 24.7,86.7 	"/>
	<path class="st1" d="M152.6,79.6v-0.9c0.4-0.1,0.7-0.3,0.9-0.5c0.3-0.2,0.5-0.4,0.6-0.7h0.9v9.1h-1.4v-7.1H152.6z"/>
	<path class="st1" d="M156.5,84.6v-0.3h1.4v0.6c0,0.2,0.1,0.4,0.2,0.5c0.1,0.1,0.3,0.2,0.5,0.2c0.2,0,0.4-0.1,0.5-0.2
		c0.1-0.1,0.2-0.3,0.2-0.5v-2.3c-0.2,0.2-0.3,0.3-0.5,0.4c-0.2,0.1-0.4,0.1-0.6,0.1c-0.6,0-1-0.2-1.3-0.7c-0.3-0.5-0.5-1.2-0.5-2.1
		c0-1,0.2-1.7,0.5-2.2c0.4-0.5,0.9-0.7,1.6-0.7c0.7,0,1.2,0.2,1.6,0.7c0.4,0.4,0.5,1.1,0.5,1.9v4.7c0,0.7-0.2,1.3-0.6,1.7
		c-0.4,0.4-0.9,0.6-1.6,0.6c-0.6,0-1.1-0.2-1.5-0.6C156.7,85.9,156.5,85.3,156.5,84.6 M159.3,81.4v-1.9c0-0.3-0.1-0.5-0.2-0.6
		c-0.1-0.1-0.3-0.2-0.6-0.2c-0.2,0-0.4,0.1-0.5,0.2c-0.1,0.2-0.2,0.4-0.2,0.7v1.3c0,0.4,0.1,0.6,0.2,0.8c0.1,0.2,0.3,0.3,0.5,0.3
		c0.2,0,0.3,0,0.4-0.1C159.1,81.8,159.2,81.6,159.3,81.4"/>
	<path class="st1" d="M161.7,84.6v-0.3h1.4v0.6c0,0.2,0.1,0.4,0.2,0.5c0.1,0.1,0.3,0.2,0.5,0.2c0.2,0,0.4-0.1,0.5-0.2
		c0.1-0.1,0.2-0.3,0.2-0.5v-2.3c-0.2,0.2-0.3,0.3-0.5,0.4c-0.2,0.1-0.4,0.1-0.6,0.1c-0.6,0-1-0.2-1.3-0.7c-0.3-0.5-0.5-1.2-0.5-2.1
		c0-1,0.2-1.7,0.5-2.2c0.4-0.5,0.9-0.7,1.6-0.7c0.7,0,1.2,0.2,1.6,0.7c0.4,0.4,0.5,1.1,0.5,1.9v4.7c0,0.7-0.2,1.3-0.6,1.7
		c-0.4,0.4-0.9,0.6-1.6,0.6c-0.6,0-1.1-0.2-1.5-0.6C161.9,85.9,161.7,85.3,161.7,84.6 M164.6,81.4v-1.9c0-0.3-0.1-0.5-0.2-0.6
		c-0.1-0.1-0.3-0.2-0.6-0.2c-0.2,0-0.4,0.1-0.5,0.2c-0.1,0.2-0.2,0.4-0.2,0.7v1.3c0,0.4,0.1,0.6,0.2,0.8c0.1,0.2,0.3,0.3,0.5,0.3
		c0.2,0,0.3,0,0.4-0.1C164.4,81.8,164.5,81.6,164.6,81.4"/>
	<path class="st1" d="M166.9,84.5v-1.2l2.3-5.7h1.3v5.7h0.9v1.2h-0.9v2.2h-1.3v-2.2H166.9z M169.2,83.3V80l-1.1,3.3H169.2z"/>
	<path class="st1" d="M134.3,28.5l-15-13.7c-0.1-0.1-0.2-0.1-0.3-0.1H55.5c-0.1,0-0.2,0-0.3,0.1l-15,13.7c-0.2,0.2-0.5,0.2-0.7,0
		L30.7,19c-0.2-0.2-0.2-0.5,0-0.7l19-17.3c0.1-0.1,0.2-0.1,0.3-0.1h74.3c0.1,0,0.2,0,0.3,0.1l19,17.3c0.2,0.2,0.2,0.5,0,0.7
		l-8.7,9.6C134.8,28.7,134.5,28.7,134.3,28.5"/>
	<path class="st1" d="M67.6,64.4c1.5,1.5,2.9,3.1,4.5,4.6c0.5,0.5,0.7,1,0.7,1.7c0,6,0,12,0,17.9c0,0.5-0.1,0.8-0.5,1.1
		c-2.5,2.5-5,5-7.5,7.5c-0.2,0.2-0.6,0.4-0.8,0.4c-9.9,0-19.8,0-29.8,0c-0.2,0-0.3,0-0.5,0V33h0.8c9.7,0,19.4,0,29,0
		c0.5,0,0.8,0.1,1.2,0.5c2.5,2.6,5.1,5.1,7.7,7.7c0.3,0.3,0.5,0.6,0.5,1.1c0,5.4,0,10.8,0,16.2c0,0.5-0.2,0.8-0.5,1.1
		C70.8,61.2,69.2,62.8,67.6,64.4 M46.8,45.2v18c0.3-0.1,0.5-0.2,0.6-0.3c2.2-1.1,4.3-2.3,6.5-3.3c2.1-1,3.9-2.2,5.3-4c0,0,0,0,0,0
		c0.1-0.3,0.3-0.5,0.3-0.8c0-2.1,0-4.2,0-6.4c0-0.3-0.1-0.6-0.3-0.8c-0.7-0.7-1.4-1.4-2.1-2c-0.2-0.2-0.6-0.4-0.9-0.4c-3,0-6,0-9,0
		C47.2,45.2,47,45.2,46.8,45.2 M46.8,86.3c3.3,0,6.6,0,9.8,0c0.2,0,0.5-0.2,0.7-0.3c0.7-0.7,1.5-1.4,2.1-2.1c0.2-0.2,0.4-0.6,0.4-1
		c0-2.2-0.1-4.3,0.1-6.5c0.1-1.8-0.3-3.3-1.8-4.3c-0.2-0.2-0.4-0.4-0.6-0.6c-0.3-0.4-0.6-0.4-0.9-0.2c-3.1,1.6-6.1,3.2-9.2,4.8
		c-0.4,0.2-0.5,0.4-0.5,0.8c0,2.2,0,4.4,0,6.6V86.3z"/>
	<path class="st1" d="M143.4,53.2h-13c0-1.4-0.1-2.7,0-4.1c0.1-1.4-0.3-2.5-1.4-3.5c-0.6-0.6-1.2-0.9-2.1-0.9c-2.2,0.1-4.3,0-6.5,0
		c-0.3,0-0.8,0.2-1,0.4c-0.7,0.7-1.6,1.3-2,2.1c-0.3,0.8-0.1,1.9-0.1,2.8c0,10.9,0,21.8,0,32.7c0,0.5,0.2,0.9,0.5,1.3
		c1.1,1.5,2.5,2,4.4,1.9c1.7-0.2,3.5,0,5.2-0.1c0.3,0,0.7-0.2,0.9-0.4c0.7-0.6,1.6-1.2,1.9-2.1c0.3-0.8,0.1-1.9,0.1-2.8
		c0-1.5,0-3,0-4.5c0,0,0-0.1-0.1-0.2h-5.4V64.4h18.5v0.7c0,7.8,0,15.6,0,23.4c0,0.4-0.1,0.7-0.4,1c-2.6,2.5-5.2,5.1-7.7,7.7
		c-0.3,0.3-0.6,0.5-1.1,0.5c-6.9,0-13.8,0-20.7,0c-0.3,0-0.7-0.2-1-0.4c-2.6-2.6-5.2-5.2-7.8-7.8c-0.2-0.2-0.4-0.6-0.4-1
		c0-15.4,0-30.9,0-46.3c0-0.3,0.2-0.8,0.4-1c2.5-2.6,5.1-5.1,7.7-7.7c0.3-0.3,0.7-0.5,1.2-0.5c6.8,0,13.6,0,20.5,0
		c0.5,0,0.8,0.1,1.2,0.5c2.6,2.6,5.2,5.2,7.7,7.8c0.2,0.2,0.4,0.7,0.4,1c0,3.4,0,6.8,0,10.2V53.2z"/>
	<rect x="82.1" y="33.1" class="st1" width="12.9" height="64.6"/>
	<path class="st1" d="M33.8,107.4h0.3c3.7,0,7.5,0,11.2,0c0.2,0,0.3,0,0.4,0.2c1,1,2,2,3,3c0.1,0.1,0.2,0.2,0.2,0.4
		c0,2.1,0,4.2,0,6.3c0,0.1-0.1,0.3-0.1,0.4c-0.6,0.7-1.3,1.3-2,2c0.1,0,0.2,0.1,0.2,0.1c0.6,0.6,1.2,1.1,1.7,1.7
		c0.1,0.1,0.1,0.2,0.1,0.3c0,2.4,0,4.8,0,7.2c0,0.1-0.1,0.3-0.1,0.3c-1,1-2,2-3,3c-0.1,0.1-0.2,0.1-0.3,0.1c-3.9,0-7.7,0-11.6,0
		c0,0-0.1,0-0.1,0V107.4z M38.8,112.1v7c0.1,0,0.1,0,0.1-0.1c1.2-0.6,2.5-1.3,3.7-1.9c0.1,0,0.1-0.1,0.2-0.2
		c0.3-0.3,0.6-0.6,0.8-0.9c0.1-0.1,0.1-0.2,0.1-0.3c0-0.8,0-1.7,0-2.5c0-0.1,0-0.2-0.1-0.3c-0.3-0.3-0.5-0.6-0.8-0.8
		c-0.1-0.1-0.2-0.1-0.4-0.1c-1,0-2,0-3,0H38.8z M38.8,128c0.9,0,1.7,0,2.6,0c0.4,0,0.9,0.1,1.3,0c0.4-0.2,0.7-0.6,1-0.9c0,0,0,0,0,0
		c0-0.1,0.1-0.2,0.1-0.3c0-1.1,0-2.2,0-3.4c0-0.1,0-0.2-0.1-0.3c-0.3-0.3-0.6-0.6-0.8-0.9c-0.1,0-0.2-0.1-0.3,0
		c-1.2,0.6-2.5,1.3-3.7,1.9c-0.1,0-0.1,0.1-0.1,0.2C38.8,125.5,38.8,126.8,38.8,128"/>
	<path class="st1" d="M71,107.4h0.3c3.8,0,7.5,0,11.3,0c0.2,0,0.3,0,0.4,0.2c1,1,2,2,3,3c0.1,0.1,0.2,0.2,0.2,0.4c0,3,0,6.1,0,9.1
		c0,0.2-0.1,0.3-0.2,0.4c-0.9,0.9-1.7,1.7-2.6,2.6c-0.1,0.1-0.1,0.2-0.1,0.4c1.4,2.9,2.8,5.8,4.2,8.7c0,0.1,0.1,0.2,0.1,0.3h-0.2
		c-1.7,0-3.4,0-5.1,0c-0.2,0-0.2-0.1-0.3-0.2c-1.2-2.8-2.5-5.6-3.7-8.4c-0.1-0.2-0.2-0.3-0.4-0.3c-0.6,0-1.1,0-1.7,0v8.9H71V107.4z
		 M76,119c1.3,0,2.5,0,3.8,0c0.1,0,0.2-0.1,0.2-0.1c0.3-0.3,0.6-0.5,0.9-0.8c0.1-0.1,0.1-0.2,0.1-0.4c0-1.1,0-2.3,0-3.4
		c0-0.4,0.1-0.9,0-1.2c-0.2-0.4-0.6-0.6-0.9-0.9c-0.1-0.1-0.2-0.1-0.4-0.1c-1.2,0-2.3,0-3.5,0c-0.1,0-0.2,0-0.2,0V119z"/>
	<path class="st1" d="M143.4,132.5h-2.8c-0.8,0-1.7,0-2.5,0c-0.2,0-0.3-0.1-0.4-0.3c-1.2-2.8-2.4-5.6-3.7-8.4
		c-0.1-0.2-0.2-0.3-0.4-0.2c-0.6,0-1.1,0-1.7,0v8.9h-5.1v-25c0.1,0,0.2,0,0.3,0c3.8,0,7.5,0,11.3,0c0.2,0,0.3,0.1,0.4,0.2
		c1,1,2,2,3,3c0.1,0.1,0.2,0.3,0.2,0.4c0,3,0,6.1,0,9.1c0,0.2-0.1,0.3-0.2,0.5c-0.9,0.9-1.7,1.7-2.6,2.6c-0.1,0.1-0.1,0.2-0.1,0.4
		c1.4,2.9,2.8,5.8,4.2,8.7C143.3,132.3,143.3,132.3,143.4,132.5 M131.9,119h0.3c0.8,0,1.5,0,2.3,0c0.4,0,0.9,0.1,1.3-0.1
		c0.4-0.2,0.7-0.6,1-0.9c0.1-0.1,0.1-0.2,0.1-0.3c0-1.5,0-3,0-4.6c0-0.1-0.1-0.2-0.1-0.3c-0.2-0.3-0.5-0.5-0.8-0.8
		c-0.1-0.1-0.2-0.2-0.4-0.2c-1.2,0-2.3,0-3.5,0c-0.1,0-0.2,0-0.3,0V119z"/>
	<path class="st1" d="M104.9,115.2h-5.1c0-0.5,0-1,0-1.5c0.1-0.6-0.1-1-0.6-1.4c-0.2-0.2-0.4-0.3-0.7-0.3c-0.9,0-1.7,0-2.6,0
		c-0.1,0-0.3,0.1-0.4,0.2c-0.3,0.3-0.6,0.5-0.8,0.8c-0.1,0.3,0,0.7,0,1.1c0,4.2,0,8.5,0,12.7c0,0.2,0.1,0.3,0.2,0.5
		c0.4,0.6,1,0.8,1.7,0.7c0.7-0.1,1.3,0,2,0c0.1,0,0.3-0.1,0.4-0.1c0.3-0.2,0.6-0.5,0.8-0.8c0.1-0.3,0-0.7,0-1.1c0-0.6,0-1.2,0-1.8
		c0,0,0,0,0-0.1h-2.1v-4.5h7.2v0.3c0,3,0,6.1,0,9.1c0,0.2,0,0.3-0.2,0.4c-1,1-2,2-3,3c-0.1,0.1-0.2,0.2-0.4,0.2c-2.7,0-5.3,0-8,0
		c-0.1,0-0.3-0.1-0.4-0.2c-1-1-2-2-3-3c-0.1-0.1-0.2-0.2-0.2-0.4c0-6,0-12,0-17.9c0-0.1,0.1-0.3,0.2-0.4c1-1,2-2,3-3
		c0.1-0.1,0.3-0.2,0.5-0.2c2.6,0,5.3,0,7.9,0c0.2,0,0.3,0,0.5,0.2c1,1,2,2,3,3c0.1,0.1,0.2,0.3,0.2,0.4c0,1.3,0,2.6,0,4V115.2z"/>
	<path class="st1" d="M52.4,107.4h1.6h3c0.3,0,0.3,0,0.3,0.3c0,6.3,0,12.7,0,19c0,0.2,0.1,0.4,0.2,0.5c0.4,0.6,0.9,0.7,1.6,0.7
		c0.7-0.1,1.3,0,2,0c0.1,0,0.3-0.1,0.4-0.2c0.3-0.2,0.6-0.5,0.7-0.8c0.1-0.3,0-0.7,0-1.1c0-6.1,0-12.1,0-18.2v-0.3h5v0.3
		c0,7.1,0,14.3-0.1,21.4c0,0.1-0.1,0.3-0.1,0.4c-1,1-1.9,1.9-2.9,2.9c-0.1,0.1-0.2,0.1-0.3,0.1c-2.7,0-5.4,0-8.1,0
		c-0.1,0-0.3-0.1-0.4-0.1c-1-1-2-2-3-3c-0.1-0.1-0.1-0.2-0.1-0.4c0-7.1,0-14.2,0-21.3V107.4z"/>
	<polygon class="st1" points="108.5,132.4 108.5,107.4 123.3,107.4 123.3,111.9 113.5,111.9 113.5,117.3 120.8,117.3 120.8,121.8 
		113.5,121.8 113.5,127.9 123.3,127.9 123.3,132.4 	"/>
	<path class="st1" d="M40.2,136.9l15,13.7c0.1,0.1,0.2,0.1,0.3,0.1h63.4c0.1,0,0.2,0,0.3-0.1l15-13.7c0.2-0.2,0.5-0.2,0.7,0l8.7,9.6
		c0.2,0.2,0.2,0.5,0,0.7l-19,17.3c-0.1,0.1-0.2,0.1-0.3,0.1H50.1c-0.1,0-0.2,0-0.3-0.1l-19-17.3c-0.2-0.2-0.2-0.5,0-0.7l8.7-9.6
		C39.6,136.8,39.9,136.7,40.2,136.9"/>
</g>
</svg>
